<?xml version="1.0" standalone="no"?>
<!DOCTYPE svg PUBLIC "-//W3C//DTD SVG 20010904//EN"
 "http://www.w3.org/TR/2001/REC-SVG-20010904/DTD/svg10.dtd">
<svg version="1.0" xmlns="http://www.w3.org/2000/svg"
 width="256.000000pt" height="256.000000pt" viewBox="0 0 256.000000 256.000000"
 preserveAspectRatio="xMidYMid meet">
<metadata>
Created by potrace 1.11, written by Peter Selinger 2001-2013
</metadata>
<g transform="translate(0.000000,256.000000) scale(0.100000,-0.100000)"
fill="#000000" stroke="none">
<path d="M488 2532 c-101 -37 -184 -122 -208 -214 -7 -23 -9 -405 -8 -1060 l3
-1023 30 -54 c33 -60 86 -109 154 -143 l46 -23 775 0 775 0 46 23 c68 34 121
83 154 143 l30 54 0 1045 0 1045 -30 54 c-33 60 -86 109 -154 143 l-46 23
-760 2 c-697 2 -764 1 -807 -15z"/>
</g>
</svg>
